<mxfile host="app.diagrams.net" modified="2021-04-30T22:38:35.233Z" agent="5.0 (Windows NT 10.0; Win64; x64) AppleWebKit/537.36 (KHTML, like Gecko) Chrome/89.0.4389.128 Safari/537.36 OPR/75.0.3969.218" etag="7A-pwUU4tlLN3_JREzeb" version="14.6.9" type="github" pages="2">
  <diagram id="C5RBs43oDa-KdzZeNtuy" name="Definitions">
    <mxGraphModel dx="1382" dy="764" grid="1" gridSize="10" guides="1" tooltips="1" connect="1" arrows="1" fold="1" page="1" pageScale="1" pageWidth="827" pageHeight="1169" math="0" shadow="0">
      <root>
        <mxCell id="WIyWlLk6GJQsqaUBKTNV-0" />
        <mxCell id="WIyWlLk6GJQsqaUBKTNV-1" parent="WIyWlLk6GJQsqaUBKTNV-0" />
        <mxCell id="oQeX9p5yyepEpvZitSPG-0" value="Basic Step" style="rounded=0;whiteSpace=wrap;html=1;" vertex="1" parent="WIyWlLk6GJQsqaUBKTNV-1">
          <mxGeometry x="80" y="50" width="80" height="30" as="geometry" />
        </mxCell>
        <mxCell id="oQeX9p5yyepEpvZitSPG-1" value="Decision" style="ellipse;whiteSpace=wrap;html=1;" vertex="1" parent="WIyWlLk6GJQsqaUBKTNV-1">
          <mxGeometry x="200" y="40" width="80" height="40" as="geometry" />
        </mxCell>
        <mxCell id="oQeX9p5yyepEpvZitSPG-2" value="Recursive Function" style="shape=hexagon;perimeter=hexagonPerimeter2;whiteSpace=wrap;html=1;fixedSize=1;" vertex="1" parent="WIyWlLk6GJQsqaUBKTNV-1">
          <mxGeometry x="330" y="40" width="120" height="50" as="geometry" />
        </mxCell>
        <mxCell id="RtTp5QrfIGCOpTLdnlya-0" value="Loop" style="shape=process;whiteSpace=wrap;html=1;backgroundOutline=1;" vertex="1" parent="WIyWlLk6GJQsqaUBKTNV-1">
          <mxGeometry x="490" y="50" width="100" height="40" as="geometry" />
        </mxCell>
      </root>
    </mxGraphModel>
  </diagram>
  <diagram id="tIxm_2JEZQ_qYNFVAXUs" name="Main Overview">
    <mxGraphModel dx="2476" dy="1999" grid="1" gridSize="10" guides="1" tooltips="1" connect="1" arrows="1" fold="1" page="1" pageScale="1" pageWidth="850" pageHeight="1100" math="0" shadow="0">
      <root>
        <mxCell id="d6WLnALJwDJ_RtDQIaNG-0" />
        <mxCell id="d6WLnALJwDJ_RtDQIaNG-1" parent="d6WLnALJwDJ_RtDQIaNG-0" />
        <mxCell id="Dl-497psYRMsx54OYw8d-57" value="" style="rounded=0;whiteSpace=wrap;html=1;fillColor=#f8cecc;strokeColor=#b85450;" vertex="1" parent="d6WLnALJwDJ_RtDQIaNG-1">
          <mxGeometry x="-840" y="130" width="1060" height="410" as="geometry" />
        </mxCell>
        <mxCell id="d6WLnALJwDJ_RtDQIaNG-8" value="" style="rounded=0;whiteSpace=wrap;html=1;fillColor=#dae8fc;strokeColor=#6c8ebf;" vertex="1" parent="d6WLnALJwDJ_RtDQIaNG-1">
          <mxGeometry x="240" y="-10" width="350" height="260" as="geometry" />
        </mxCell>
        <mxCell id="d6WLnALJwDJ_RtDQIaNG-2" value="Input For The Move" style="rounded=0;whiteSpace=wrap;html=1;" vertex="1" parent="d6WLnALJwDJ_RtDQIaNG-1">
          <mxGeometry x="360" y="10" width="80" height="40" as="geometry" />
        </mxCell>
        <mxCell id="d6WLnALJwDJ_RtDQIaNG-6" value="" style="endArrow=classic;html=1;exitX=0.5;exitY=1;exitDx=0;exitDy=0;entryX=0.5;entryY=0;entryDx=0;entryDy=0;" edge="1" parent="d6WLnALJwDJ_RtDQIaNG-1" source="d6WLnALJwDJ_RtDQIaNG-2" target="Dl-497psYRMsx54OYw8d-1">
          <mxGeometry width="50" height="50" relative="1" as="geometry">
            <mxPoint x="400" y="170" as="sourcePoint" />
            <mxPoint x="400" y="220" as="targetPoint" />
          </mxGeometry>
        </mxCell>
        <mxCell id="d6WLnALJwDJ_RtDQIaNG-9" value="&lt;font style=&quot;font-size: 20px&quot;&gt;Main&lt;/font&gt;" style="text;html=1;strokeColor=none;fillColor=none;align=center;verticalAlign=middle;whiteSpace=wrap;rounded=0;" vertex="1" parent="d6WLnALJwDJ_RtDQIaNG-1">
          <mxGeometry x="490" y="10" width="90" height="80" as="geometry" />
        </mxCell>
        <mxCell id="d6WLnALJwDJ_RtDQIaNG-11" value="" style="endArrow=classic;html=1;exitX=0.5;exitY=1;exitDx=0;exitDy=0;entryX=0.5;entryY=0;entryDx=0;entryDy=0;" edge="1" parent="d6WLnALJwDJ_RtDQIaNG-1" source="Dl-497psYRMsx54OYw8d-1">
          <mxGeometry width="50" height="50" relative="1" as="geometry">
            <mxPoint x="400" y="260" as="sourcePoint" />
            <mxPoint x="400" y="190" as="targetPoint" />
          </mxGeometry>
        </mxCell>
        <mxCell id="Dl-497psYRMsx54OYw8d-1" value="Find the optimal rating for each possible move from the current position" style="shape=process;whiteSpace=wrap;html=1;backgroundOutline=1;" vertex="1" parent="d6WLnALJwDJ_RtDQIaNG-1">
          <mxGeometry x="320" y="90" width="160" height="60" as="geometry" />
        </mxCell>
        <mxCell id="Dl-497psYRMsx54OYw8d-34" value="" style="endArrow=none;dashed=1;html=1;dashPattern=1 3;strokeWidth=2;exitX=1;exitY=0;exitDx=0;exitDy=0;entryX=0;entryY=0.5;entryDx=0;entryDy=0;" edge="1" parent="d6WLnALJwDJ_RtDQIaNG-1" source="Dl-497psYRMsx54OYw8d-46" target="Dl-497psYRMsx54OYw8d-35">
          <mxGeometry width="50" height="50" relative="1" as="geometry">
            <mxPoint x="-130" y="430" as="sourcePoint" />
            <mxPoint x="-80" y="380" as="targetPoint" />
          </mxGeometry>
        </mxCell>
        <mxCell id="Dl-497psYRMsx54OYw8d-35" value="Get Optimal Rating from this position" style="shape=hexagon;perimeter=hexagonPerimeter2;whiteSpace=wrap;html=1;fixedSize=1;" vertex="1" parent="d6WLnALJwDJ_RtDQIaNG-1">
          <mxGeometry x="-70" y="190" width="120" height="50" as="geometry" />
        </mxCell>
        <mxCell id="Dl-497psYRMsx54OYw8d-36" value="If this is final Layer" style="ellipse;whiteSpace=wrap;html=1;" vertex="1" parent="d6WLnALJwDJ_RtDQIaNG-1">
          <mxGeometry x="-55" y="280" width="90" height="50" as="geometry" />
        </mxCell>
        <mxCell id="Dl-497psYRMsx54OYw8d-37" value="" style="endArrow=classic;html=1;exitX=0.5;exitY=1;exitDx=0;exitDy=0;entryX=0.5;entryY=0;entryDx=0;entryDy=0;" edge="1" parent="d6WLnALJwDJ_RtDQIaNG-1" source="Dl-497psYRMsx54OYw8d-35" target="Dl-497psYRMsx54OYw8d-36">
          <mxGeometry width="50" height="50" relative="1" as="geometry">
            <mxPoint x="230" y="410" as="sourcePoint" />
            <mxPoint x="280" y="360" as="targetPoint" />
          </mxGeometry>
        </mxCell>
        <mxCell id="Dl-497psYRMsx54OYw8d-38" value="Return Current Rating" style="rounded=0;whiteSpace=wrap;html=1;" vertex="1" parent="d6WLnALJwDJ_RtDQIaNG-1">
          <mxGeometry x="110" y="290" width="90" height="30" as="geometry" />
        </mxCell>
        <mxCell id="Dl-497psYRMsx54OYw8d-39" value="" style="endArrow=classic;html=1;entryX=0;entryY=0.5;entryDx=0;entryDy=0;exitX=1;exitY=0.5;exitDx=0;exitDy=0;" edge="1" parent="d6WLnALJwDJ_RtDQIaNG-1" source="Dl-497psYRMsx54OYw8d-36" target="Dl-497psYRMsx54OYw8d-38">
          <mxGeometry width="50" height="50" relative="1" as="geometry">
            <mxPoint x="40" y="310" as="sourcePoint" />
            <mxPoint x="20" y="280" as="targetPoint" />
          </mxGeometry>
        </mxCell>
        <mxCell id="Dl-497psYRMsx54OYw8d-40" value="" style="endArrow=classic;html=1;entryX=1;entryY=0.5;entryDx=0;entryDy=0;exitX=0;exitY=0.5;exitDx=0;exitDy=0;" edge="1" parent="d6WLnALJwDJ_RtDQIaNG-1" source="Dl-497psYRMsx54OYw8d-36">
          <mxGeometry width="50" height="50" relative="1" as="geometry">
            <mxPoint x="-30" y="330" as="sourcePoint" />
            <mxPoint x="-170" y="305" as="targetPoint" />
          </mxGeometry>
        </mxCell>
        <mxCell id="Dl-497psYRMsx54OYw8d-41" value="If Playing Black" style="ellipse;whiteSpace=wrap;html=1;" vertex="1" parent="d6WLnALJwDJ_RtDQIaNG-1">
          <mxGeometry x="-250" y="285" width="80" height="40" as="geometry" />
        </mxCell>
        <mxCell id="Dl-497psYRMsx54OYw8d-42" value="" style="endArrow=classic;html=1;exitX=0.5;exitY=1;exitDx=0;exitDy=0;startArrow=none;entryX=1;entryY=0.5;entryDx=0;entryDy=0;" edge="1" parent="d6WLnALJwDJ_RtDQIaNG-1" source="Dl-497psYRMsx54OYw8d-44">
          <mxGeometry width="50" height="50" relative="1" as="geometry">
            <mxPoint x="-260" y="430" as="sourcePoint" />
            <mxPoint x="-290" y="360" as="targetPoint" />
          </mxGeometry>
        </mxCell>
        <mxCell id="Dl-497psYRMsx54OYw8d-43" value="Yes" style="text;html=1;strokeColor=none;fillColor=none;align=center;verticalAlign=middle;whiteSpace=wrap;rounded=0;" vertex="1" parent="d6WLnALJwDJ_RtDQIaNG-1">
          <mxGeometry x="40" y="285" width="40" height="20" as="geometry" />
        </mxCell>
        <mxCell id="Dl-497psYRMsx54OYw8d-44" value="Yes" style="text;html=1;strokeColor=none;fillColor=none;align=center;verticalAlign=middle;whiteSpace=wrap;rounded=0;" vertex="1" parent="d6WLnALJwDJ_RtDQIaNG-1">
          <mxGeometry x="-230" y="340" width="40" height="20" as="geometry" />
        </mxCell>
        <mxCell id="Dl-497psYRMsx54OYw8d-45" value="" style="endArrow=none;html=1;exitX=0.5;exitY=1;exitDx=0;exitDy=0;" edge="1" parent="d6WLnALJwDJ_RtDQIaNG-1" source="Dl-497psYRMsx54OYw8d-41" target="Dl-497psYRMsx54OYw8d-44">
          <mxGeometry width="50" height="50" relative="1" as="geometry">
            <mxPoint x="-210" y="325" as="sourcePoint" />
            <mxPoint x="-210" y="380" as="targetPoint" />
          </mxGeometry>
        </mxCell>
        <mxCell id="Dl-497psYRMsx54OYw8d-46" value="Get Opponent&#39;s highest rating for each move from now" style="shape=process;whiteSpace=wrap;html=1;backgroundOutline=1;" vertex="1" parent="d6WLnALJwDJ_RtDQIaNG-1">
          <mxGeometry x="-420" y="340" width="130" height="60" as="geometry" />
        </mxCell>
        <mxCell id="Dl-497psYRMsx54OYw8d-47" value="Get Opponent&#39;s lowest rating for each move from now" style="shape=process;whiteSpace=wrap;html=1;backgroundOutline=1;" vertex="1" parent="d6WLnALJwDJ_RtDQIaNG-1">
          <mxGeometry x="-420" y="220" width="120" height="70" as="geometry" />
        </mxCell>
        <mxCell id="Dl-497psYRMsx54OYw8d-48" value="" style="endArrow=classic;html=1;exitX=0.5;exitY=0;exitDx=0;exitDy=0;entryX=1;entryY=0.5;entryDx=0;entryDy=0;" edge="1" parent="d6WLnALJwDJ_RtDQIaNG-1" source="Dl-497psYRMsx54OYw8d-41" target="Dl-497psYRMsx54OYw8d-47">
          <mxGeometry width="50" height="50" relative="1" as="geometry">
            <mxPoint x="-240" y="260" as="sourcePoint" />
            <mxPoint x="-190" y="210" as="targetPoint" />
            <Array as="points">
              <mxPoint x="-210" y="255" />
            </Array>
          </mxGeometry>
        </mxCell>
        <mxCell id="Dl-497psYRMsx54OYw8d-49" value="" style="endArrow=none;dashed=1;html=1;dashPattern=1 3;strokeWidth=2;exitX=0.942;exitY=0.029;exitDx=0;exitDy=0;exitPerimeter=0;entryX=0;entryY=0.5;entryDx=0;entryDy=0;" edge="1" parent="d6WLnALJwDJ_RtDQIaNG-1" source="Dl-497psYRMsx54OYw8d-47" target="Dl-497psYRMsx54OYw8d-35">
          <mxGeometry width="50" height="50" relative="1" as="geometry">
            <mxPoint x="-180" y="250" as="sourcePoint" />
            <mxPoint x="-130" y="200" as="targetPoint" />
          </mxGeometry>
        </mxCell>
        <mxCell id="Dl-497psYRMsx54OYw8d-50" value="Set &quot;optimal variable&quot; to be the highest possible &quot;forced&quot; rating" style="rounded=0;whiteSpace=wrap;html=1;" vertex="1" parent="d6WLnALJwDJ_RtDQIaNG-1">
          <mxGeometry x="-640" y="230" width="140" height="50" as="geometry" />
        </mxCell>
        <mxCell id="Dl-497psYRMsx54OYw8d-51" value="Set &quot;optimal variable&quot; to be the lowest possible &quot;forced&quot; rating" style="rounded=0;whiteSpace=wrap;html=1;" vertex="1" parent="d6WLnALJwDJ_RtDQIaNG-1">
          <mxGeometry x="-630" y="345" width="140" height="50" as="geometry" />
        </mxCell>
        <mxCell id="Dl-497psYRMsx54OYw8d-52" value="" style="endArrow=classic;html=1;exitX=0;exitY=0.5;exitDx=0;exitDy=0;entryX=1;entryY=0.5;entryDx=0;entryDy=0;" edge="1" parent="d6WLnALJwDJ_RtDQIaNG-1" source="Dl-497psYRMsx54OYw8d-47" target="Dl-497psYRMsx54OYw8d-50">
          <mxGeometry width="50" height="50" relative="1" as="geometry">
            <mxPoint x="-390" y="460" as="sourcePoint" />
            <mxPoint x="-340" y="410" as="targetPoint" />
          </mxGeometry>
        </mxCell>
        <mxCell id="Dl-497psYRMsx54OYw8d-53" value="" style="endArrow=classic;html=1;exitX=0;exitY=0.5;exitDx=0;exitDy=0;entryX=1;entryY=0.5;entryDx=0;entryDy=0;" edge="1" parent="d6WLnALJwDJ_RtDQIaNG-1" source="Dl-497psYRMsx54OYw8d-46" target="Dl-497psYRMsx54OYw8d-51">
          <mxGeometry width="50" height="50" relative="1" as="geometry">
            <mxPoint x="-430" y="470" as="sourcePoint" />
            <mxPoint x="-380" y="420" as="targetPoint" />
          </mxGeometry>
        </mxCell>
        <mxCell id="Dl-497psYRMsx54OYw8d-54" value="Return the optimal rating" style="rounded=0;whiteSpace=wrap;html=1;" vertex="1" parent="d6WLnALJwDJ_RtDQIaNG-1">
          <mxGeometry x="-810" y="290" width="80" height="30" as="geometry" />
        </mxCell>
        <mxCell id="Dl-497psYRMsx54OYw8d-55" value="" style="endArrow=classic;html=1;entryX=1;entryY=0.5;entryDx=0;entryDy=0;exitX=0;exitY=0.5;exitDx=0;exitDy=0;" edge="1" parent="d6WLnALJwDJ_RtDQIaNG-1" source="Dl-497psYRMsx54OYw8d-50" target="Dl-497psYRMsx54OYw8d-54">
          <mxGeometry width="50" height="50" relative="1" as="geometry">
            <mxPoint x="-670" y="320" as="sourcePoint" />
            <mxPoint x="-620" y="270" as="targetPoint" />
          </mxGeometry>
        </mxCell>
        <mxCell id="Dl-497psYRMsx54OYw8d-56" value="" style="endArrow=classic;html=1;exitX=0;exitY=0.5;exitDx=0;exitDy=0;entryX=1;entryY=0.5;entryDx=0;entryDy=0;" edge="1" parent="d6WLnALJwDJ_RtDQIaNG-1" source="Dl-497psYRMsx54OYw8d-51" target="Dl-497psYRMsx54OYw8d-54">
          <mxGeometry width="50" height="50" relative="1" as="geometry">
            <mxPoint x="-790" y="410" as="sourcePoint" />
            <mxPoint x="-740" y="360" as="targetPoint" />
          </mxGeometry>
        </mxCell>
        <mxCell id="Dl-497psYRMsx54OYw8d-58" value="&lt;font style=&quot;font-size: 20px&quot;&gt;Getting the optimal rating&lt;/font&gt;" style="text;html=1;strokeColor=none;fillColor=none;align=center;verticalAlign=middle;whiteSpace=wrap;rounded=0;" vertex="1" parent="d6WLnALJwDJ_RtDQIaNG-1">
          <mxGeometry x="-30" y="440" width="150" height="50" as="geometry" />
        </mxCell>
        <mxCell id="Dl-497psYRMsx54OYw8d-59" value="Return the move with the lowest rating" style="rounded=0;whiteSpace=wrap;html=1;" vertex="1" parent="d6WLnALJwDJ_RtDQIaNG-1">
          <mxGeometry x="345" y="190" width="110" height="50" as="geometry" />
        </mxCell>
      </root>
    </mxGraphModel>
  </diagram>
</mxfile>
